IKResults
version=1
nRows=10
nColumns=67
inDegrees=yes

Units are S.I. units (second, meters, Newtons, ...)
Angles are in degrees.

endheader
time	pelvis_tilt	pelvis_list	pelvis_rotation	pelvis_tx	pelvis_ty	pelvis_tz	hip_flexion_r	hip_adduction_r	hip_rotation_r	knee_angle_r	knee_rot_r	knee_adduc_r	ankle_angle_r	ankle_rot_r	ankle_add_r	subtalar_angle_r	mtp_angle_r	mtp_rot_r	mtp_add_r	hip_flexion_l	hip_adduction_l	hip_rotation_l	knee_angle_l	knee_rot_l	knee_adduc_l	ankle_angle_l	ankle_rot_l	ankle_add_l	subtalar_angle_l	mtp_angle_l	mtp_rot_l	mtp_add_l	lumbar_extension	lumbar_bending	lumbar_rotation	neck_flexion	neck_lateral_bending	neck_rotation	arm_flex_r	arm_add_r	arm_rot_r	elbow_flex_r	elbow_rot_r	elbow_add_r	pro_sup_r	wrist_flex_r	wrist_adduc_r	wrist_rot_r	wrist_dev_r	hand_finger_flex_r	hand_finger_adduc_r	hand_finger_rot_r	arm_flex_l	arm_add_l	arm_rot_l	elbow_flex_l	elbow_rot_l	elbow_add_l	pro_sup_l	wrist_flex_l	wrist_adduc_l	wrist_rot_l	wrist_dev_l	hand_finger_flex_l	hand_finger_adduc_l	hand_finger_rot_l
      0.81000000	     19.17533068	      4.36161455	      0.14950594	     -1.42021625	      0.72454177	      0.84990230	     14.01362745	     -2.08092386	      0.25202616	    -25.02373593	     -5.00000000	      0.92029786	     -4.23804828	     -5.00000000	      5.00000000	     -8.33862430	     22.07665626	     -2.00000000	      1.23889548	    -44.38577454	      5.32743242	      1.51576564	    -10.65314536	      5.00000000	      1.92676637	     10.28823245	     -0.86787825	     -0.32149798	      9.91212663	     21.07317247	      0.37570394	     -2.00000000	    -32.87329087	     -1.58115937	     -6.21949961	      0.00000000	      0.00000000	      0.00000000	      0.00000000	      0.00000000	      0.00000000	      0.00000000	      0.00000000	      0.00000000	     -0.00042092	      0.00000000	      0.00000000	      0.00000000	      0.00000000	      0.00000000	      0.00000000	      0.00000000	      0.00000000	      0.00000000	      0.00000000	      0.00000000	      0.00000000	      0.00000000	      0.00000000	      0.00000000	      0.00000000	      0.00000000	      0.00000000	      0.00000000	      0.00000000	      0.00000000
      0.81500000	     18.31661420	      4.25876133	     -0.48958682	     -1.41279889	      0.72354411	      0.85073454	     15.75422706	     -1.84711144	      3.27021257	    -27.37051504	     -5.00000000	      2.23827926	     -4.01493124	     -5.00000000	      5.00000000	    -11.34756066	     20.59190801	     -2.00000000	      0.73316887	    -43.29856767	      5.87141245	      1.34086168	    -11.82632019	      5.00000000	      2.38885258	      9.00786013	      0.33409945	     -0.99373575	     11.39446261	     23.92156554	      0.46668623	     -2.00000000	    -31.74212961	     -1.68352264	     -5.74932401	      0.00000000	      0.00000000	      0.00000000	      0.00000000	      0.00000000	      0.00000000	      0.00000000	      0.00000000	      0.00000000	     -0.00042092	      0.00000000	      0.00000000	      0.00000000	      0.00000000	      0.00000000	      0.00000000	      0.00000000	      0.00000000	      0.00000000	      0.00000000	      0.00000000	      0.00000000	      0.00000000	      0.00000000	      0.00000000	      0.00000000	      0.00000000	      0.00000000	      0.00000000	      0.00000000	      0.00000000
      0.82000000	     18.50861868	      3.82519158	     -0.61489054	     -1.40556067	      0.72383483	      0.85121678	     15.88224653	     -1.31917815	      3.27260122	    -28.98291727	     -5.00000000	      2.32145956	     -4.04772358	     -5.00000000	      5.00000000	    -11.35427848	     20.55759929	     -2.00000000	      0.72150257	    -43.26809794	      5.64703914	      1.40906222	    -13.09359175	      5.00000000	      2.59690188	      8.34179805	      0.27822752	     -0.82997230	     11.46351772	     23.98008820	      0.46763258	     -2.00000000	    -31.89490195	     -1.16915684	     -5.73549926	      0.00000000	      0.00000000	      0.00000000	      0.00000000	      0.00000000	      0.00000000	      0.00000000	      0.00000000	      0.00000000	     -0.00042092	      0.00000000	      0.00000000	      0.00000000	      0.00000000	      0.00000000	      0.00000000	      0.00000000	      0.00000000	      0.00000000	      0.00000000	      0.00000000	      0.00000000	      0.00000000	      0.00000000	      0.00000000	      0.00000000	      0.00000000	      0.00000000	      0.00000000	      0.00000000	      0.00000000
      0.82500000	     18.44733841	      3.28377086	     -0.71165775	     -1.39800687	      0.72412450	      0.85203778	     15.98361930	     -0.66142150	      3.44134436	    -30.10689993	     -5.00000000	      2.51581068	     -3.79035617	     -5.00000000	      5.00000000	    -11.41581795	     20.44221254	     -2.00000000	      0.67991706	    -42.79667011	      5.06600280	      1.06166464	    -14.65562791	      5.00000000	      2.39836703	      6.87236492	      0.45950585	     -0.50571131	     11.49537671	     24.18781578	      0.48413124	     -2.00000000	    -31.67647664	     -0.64831727	     -5.66750087	      0.00000000	      0.00000000	      0.00000000	      0.00000000	      0.00000000	      0.00000000	      0.00000000	      0.00000000	      0.00000000	     -0.00042092	      0.00000000	      0.00000000	      0.00000000	      0.00000000	      0.00000000	      0.00000000	      0.00000000	      0.00000000	      0.00000000	      0.00000000	      0.00000000	      0.00000000	      0.00000000	      0.00000000	      0.00000000	      0.00000000	      0.00000000	      0.00000000	      0.00000000	      0.00000000	      0.00000000
      0.83000000	     18.55152129	      2.89219961	     -0.80442316	     -1.39067641	      0.72446800	      0.85245482	     15.94779840	     -0.20586440	      3.51302533	    -31.29809626	     -5.00000000	      2.64318919	     -3.77130808	     -5.00000000	      5.00000000	    -11.42052970	     20.40370252	     -2.00000000	      0.66611635	    -42.49428232	      4.85876426	      1.00683102	    -16.19158126	      5.00000000	      2.60478226	      6.02427928	      0.43681098	     -0.30232567	     11.55305692	     24.25812011	      0.48949102	     -2.00000000	    -31.72876929	     -0.12515134	     -5.69917155	      0.00000000	      0.00000000	      0.00000000	      0.00000000	      0.00000000	      0.00000000	      0.00000000	      0.00000000	      0.00000000	     -0.00042092	      0.00000000	      0.00000000	      0.00000000	      0.00000000	      0.00000000	      0.00000000	      0.00000000	      0.00000000	      0.00000000	      0.00000000	      0.00000000	      0.00000000	      0.00000000	      0.00000000	      0.00000000	      0.00000000	      0.00000000	      0.00000000	      0.00000000	      0.00000000	      0.00000000
      0.83500000	     17.44131662	      2.92086387	     -1.06111344	     -1.38324920	      0.72384940	      0.85317037	     17.16767248	     -0.30322789	      5.73709979	    -32.33005243	     -5.00000000	      4.18587722	     -3.16946538	     -5.00000000	      5.00000000	    -13.90532949	     16.62931398	     -2.00000000	     -0.74697597	    -40.57435631	      4.92086608	      1.10251286	    -18.21908502	      5.00000000	      2.32318590	      4.30588096	      1.34921427	      1.76025787	     12.40755619	     31.73126968	      1.30599626	     -2.00000000	    -30.29389388	     -0.22664460	     -5.69924388	      0.00000000	      0.00000000	      0.00000000	      0.00000000	      0.00000000	      0.00000000	      0.00000000	      0.00000000	      0.00000000	     -0.00042092	      0.00000000	      0.00000000	      0.00000000	      0.00000000	      0.00000000	      0.00000000	      0.00000000	      0.00000000	      0.00000000	      0.00000000	      0.00000000	      0.00000000	      0.00000000	      0.00000000	      0.00000000	      0.00000000	      0.00000000	      0.00000000	      0.00000000	      0.00000000	      0.00000000
      0.84000000	     17.58169526	      2.08916819	     -0.56913540	     -1.37554927	      0.72481100	      0.85350317	     16.35649449	      0.53701139	      3.81506041	    -32.39354657	     -5.00000000	      3.46493199	     -3.31427824	     -4.61200199	      5.00000000	    -12.74028589	     15.41930585	     -2.00000000	     -1.19391400	    -40.03188060	      3.68619549	      0.59327299	    -20.21327095	      5.00000000	      2.22268497	      3.49417681	      1.19917779	      2.92463065	     12.98812152	     33.98745521	      1.83034494	     -2.00000000	    -30.28340906	      0.95452729	     -6.14240950	      0.00000000	      0.00000000	      0.00000000	      0.00000000	      0.00000000	      0.00000000	      0.00000000	      0.00000000	      0.00000000	     -0.00042092	      0.00000000	      0.00000000	      0.00000000	      0.00000000	      0.00000000	      0.00000000	      0.00000000	      0.00000000	      0.00000000	      0.00000000	      0.00000000	      0.00000000	      0.00000000	      0.00000000	      0.00000000	      0.00000000	      0.00000000	      0.00000000	      0.00000000	      0.00000000	      0.00000000
      0.84500000	     17.45723170	      1.68075304	     -0.38353360	     -1.36824381	      0.72542841	      0.85408110	     15.91148732	      0.90909960	      3.79238370	    -32.50455970	     -5.00000000	      3.79841800	     -2.88993923	     -4.84052906	      5.00000000	    -12.80829468	     15.34143381	     -2.00000000	     -1.21708832	    -39.05507637	      3.06430630	      0.38786807	    -22.34978707	      5.00000000	      2.16733788	      2.04367804	      1.05054962	      3.51244626	     13.07708691	     34.15748361	      1.87367224	     -2.00000000	    -30.04836901	      1.48338759	     -6.29956132	      0.00000000	      0.00000000	      0.00000000	      0.00000000	      0.00000000	      0.00000000	      0.00000000	      0.00000000	      0.00000000	     -0.00042092	      0.00000000	      0.00000000	      0.00000000	      0.00000000	      0.00000000	      0.00000000	      0.00000000	      0.00000000	      0.00000000	      0.00000000	      0.00000000	      0.00000000	      0.00000000	      0.00000000	      0.00000000	      0.00000000	      0.00000000	      0.00000000	      0.00000000	      0.00000000	      0.00000000
      0.85000000	     17.24015969	      1.24271331	     -0.08984440	     -1.36100818	      0.72599795	      0.85455179	     15.50724254	      1.28227044	      3.60995247	    -32.53411068	     -5.00000000	      4.09957155	     -2.46365002	     -4.93696654	      5.00000000	    -12.81708077	     15.26214325	     -2.00000000	     -1.24039049	    -37.85837234	      2.35123643	      0.23429435	    -24.65381875	      5.00000000	      2.11042534	      0.81109314	      0.83778233	      4.33500273	     12.98011953	     34.34058006	      1.91629448	     -2.00000000	    -29.71028459	      2.10821626	     -6.58003960	      0.00000000	      0.00000000	      0.00000000	      0.00000000	      0.00000000	      0.00000000	      0.00000000	      0.00000000	      0.00000000	     -0.00042092	      0.00000000	      0.00000000	      0.00000000	      0.00000000	      0.00000000	      0.00000000	      0.00000000	      0.00000000	      0.00000000	      0.00000000	      0.00000000	      0.00000000	      0.00000000	      0.00000000	      0.00000000	      0.00000000	      0.00000000	      0.00000000	      0.00000000	      0.00000000	      0.00000000
      0.85500000	     16.99275615	      0.83913057	      0.23236404	     -1.35395966	      0.72656545	      0.85504624	     15.07308018	      1.65725124	      3.28709729	    -32.43285771	     -5.00000000	      4.25834405	     -1.97450311	     -4.97163015	      5.00000000	    -12.81646878	     15.18466426	     -2.00000000	     -1.26224449	    -36.49364310	      1.65108942	      0.13755046	    -27.14066956	      4.93820394	      2.06411916	     -0.16032638	      0.59013048	      5.00000000	     12.71481826	     34.52203159	      1.95818582	     -2.00000000	    -29.36189590	      2.69664511	     -6.87154796	      0.00000000	      0.00000000	      0.00000000	      0.00000000	      0.00000000	      0.00000000	      0.00000000	      0.00000000	      0.00000000	     -0.00042092	      0.00000000	      0.00000000	      0.00000000	      0.00000000	      0.00000000	      0.00000000	      0.00000000	      0.00000000	      0.00000000	      0.00000000	      0.00000000	      0.00000000	      0.00000000	      0.00000000	      0.00000000	      0.00000000	      0.00000000	      0.00000000	      0.00000000	      0.00000000	      0.00000000
